<svg width="124" height="102" viewBox="0 0 124 102" fill="none" xmlns="http://www.w3.org/2000/svg">
<path d="M49.957 29.6016L33.1172 81H16.7695L0 29.6016H15.6094L22.6055 55.6523C22.8633 56.6367 23.1562 57.9023 23.4844 59.4492C23.8359 60.9727 24.1523 62.4961 24.4336 64.0195C24.7383 65.543 24.9258 66.7852 24.9961 67.7461C25.0898 66.7852 25.2656 65.5547 25.5234 64.0547C25.7812 62.5547 26.0625 61.0547 26.3672 59.5547C26.6953 58.0312 27 56.7773 27.2812 55.793L34.418 29.6016H49.957ZM77.9414 81L67.4297 43.9805H67.1133C67.207 44.9414 67.3008 46.2422 67.3945 47.8828C67.5117 49.5234 67.6172 51.293 67.7109 53.1914C67.8047 55.0898 67.8516 56.918 67.8516 58.6758V81H55.5469V29.6016H74.0391L84.7617 66.0938H85.043L95.5547 29.6016H114.082V81H101.32V58.4648C101.32 56.8477 101.344 55.1133 101.391 53.2617C101.461 51.3867 101.531 49.6289 101.602 47.9883C101.695 46.3242 101.777 45.0117 101.848 44.0508H101.531L91.1602 81H77.9414Z" fill="black"/>
<mask id="path-2-outside-1_1156_90" maskUnits="userSpaceOnUse" x="2" y="26" width="116" height="53" fill="black">
<rect fill="white" x="2" y="26" width="116" height="53"/>
<path d="M52.957 26.6016L36.1172 78H19.7695L3 26.6016H18.6094L25.6055 52.6523C25.8633 53.6367 26.1562 54.9023 26.4844 56.4492C26.8359 57.9727 27.1523 59.4961 27.4336 61.0195C27.7383 62.543 27.9258 63.7852 27.9961 64.7461C28.0898 63.7852 28.2656 62.5547 28.5234 61.0547C28.7812 59.5547 29.0625 58.0547 29.3672 56.5547C29.6953 55.0312 30 53.7773 30.2812 52.793L37.418 26.6016H52.957ZM80.9414 78L70.4297 40.9805H70.1133C70.207 41.9414 70.3008 43.2422 70.3945 44.8828C70.5117 46.5234 70.6172 48.293 70.7109 50.1914C70.8047 52.0898 70.8516 53.918 70.8516 55.6758V78H58.5469V26.6016H77.0391L87.7617 63.0938H88.043L98.5547 26.6016H117.082V78H104.32V55.4648C104.32 53.8477 104.344 52.1133 104.391 50.2617C104.461 48.3867 104.531 46.6289 104.602 44.9883C104.695 43.3242 104.777 42.0117 104.848 41.0508H104.531L94.1602 78H80.9414Z"/>
</mask>
<path d="M52.957 26.6016L53.4322 26.7572L53.647 26.1016H52.957V26.6016ZM36.1172 78V78.5H36.4795L36.5923 78.1557L36.1172 78ZM19.7695 78L19.2942 78.1551L19.4067 78.5H19.7695V78ZM3 26.6016V26.1016H2.31093L2.52466 26.7566L3 26.6016ZM18.6094 26.6016L19.0923 26.4719L18.9928 26.1016H18.6094V26.6016ZM25.6055 52.6523L26.0892 52.5257L26.0884 52.5227L25.6055 52.6523ZM26.4844 56.4492L25.9952 56.553L25.9972 56.5616L26.4844 56.4492ZM27.4336 61.0195L26.9418 61.1103L26.9433 61.1176L27.4336 61.0195ZM27.9961 64.7461L27.4974 64.7826L28.4937 64.7946L27.9961 64.7461ZM29.3672 56.5547L28.8784 56.4494L28.8772 56.4552L29.3672 56.5547ZM30.2812 52.793L30.762 52.9303L30.7637 52.9244L30.2812 52.793ZM37.418 26.6016V26.1016H37.036L36.9356 26.4701L37.418 26.6016ZM52.957 26.6016L52.4819 26.4459L35.642 77.8443L36.1172 78L36.5923 78.1557L53.4322 26.7572L52.957 26.6016ZM36.1172 78V77.5H19.7695V78V78.5H36.1172V78ZM19.7695 78L20.2449 77.8449L3.47534 26.4465L3 26.6016L2.52466 26.7566L19.2942 78.1551L19.7695 78ZM3 26.6016V27.1016H18.6094V26.6016V26.1016H3V26.6016ZM18.6094 26.6016L18.1265 26.7312L25.1226 52.782L25.6055 52.6523L26.0884 52.5227L19.0923 26.4719L18.6094 26.6016ZM25.6055 52.6523L25.1218 52.779C25.3768 53.7529 25.668 55.0101 25.9953 56.553L26.4844 56.4492L26.9735 56.3455C26.6445 54.7946 26.3497 53.5206 26.0892 52.5257L25.6055 52.6523ZM26.4844 56.4492L25.9972 56.5616C26.3471 58.078 26.662 59.5942 26.9419 61.1103L27.4336 61.0195L27.9253 60.9288C27.6427 59.398 27.3248 57.8673 26.9716 56.3368L26.4844 56.4492ZM27.4336 61.0195L26.9433 61.1176C27.2461 62.6314 27.4293 63.8509 27.4974 64.7826L27.9961 64.7461L28.4948 64.7096C28.4223 63.7194 28.2305 62.4546 27.9239 60.9215L27.4336 61.0195ZM27.9961 64.7461L28.4937 64.7946C28.5858 63.8506 28.7594 62.6334 29.0162 61.1394L28.5234 61.0547L28.0307 60.97C27.7718 62.476 27.5939 63.7197 27.4985 64.6975L27.9961 64.7461ZM28.5234 61.0547L29.0162 61.1394C29.2732 59.6444 29.5535 58.1493 29.8572 56.6542L29.3672 56.5547L28.8772 56.4552C28.5715 57.9601 28.2893 59.465 28.0307 60.97L28.5234 61.0547ZM29.3672 56.5547L29.856 56.66C30.1828 55.1424 30.4849 53.9002 30.762 52.9303L30.2812 52.793L29.8005 52.6556C29.5151 53.6545 29.2078 54.9201 28.8784 56.4494L29.3672 56.5547ZM30.2812 52.793L30.7637 52.9244L37.9004 26.733L37.418 26.6016L36.9356 26.4701L29.7988 52.6615L30.2812 52.793ZM37.418 26.6016V27.1016H52.957V26.6016V26.1016H37.418V26.6016ZM80.9414 78L80.4604 78.1366L80.5636 78.5H80.9414V78ZM70.4297 40.9805L70.9107 40.8439L70.8075 40.4805H70.4297V40.9805ZM70.1133 40.9805V40.4805H69.5621L69.6156 41.029L70.1133 40.9805ZM70.3945 44.8828L69.8953 44.9113L69.8958 44.9184L70.3945 44.8828ZM70.8516 78V78.5H71.3516V78H70.8516ZM58.5469 78H58.0469V78.5H58.5469V78ZM58.5469 26.6016V26.1016H58.0469V26.6016H58.5469ZM77.0391 26.6016L77.5188 26.4606L77.4133 26.1016H77.0391V26.6016ZM87.7617 63.0938L87.282 63.2347L87.3875 63.5938H87.7617V63.0938ZM88.043 63.0938V63.5938H88.4193L88.5234 63.2321L88.043 63.0938ZM98.5547 26.6016V26.1016H98.1784L98.0742 26.4632L98.5547 26.6016ZM117.082 26.6016H117.582V26.1016H117.082V26.6016ZM117.082 78V78.5H117.582V78H117.082ZM104.32 78H103.82V78.5H104.32V78ZM104.391 50.2617L103.891 50.243L103.891 50.2491L104.391 50.2617ZM104.602 44.9883L104.102 44.9602L104.102 44.9669L104.602 44.9883ZM104.848 41.0508L105.346 41.0873L105.386 40.5508H104.848V41.0508ZM104.531 41.0508V40.5508H104.152L104.05 40.9157L104.531 41.0508ZM94.1602 78V78.5H94.5391L94.6416 78.1351L94.1602 78ZM80.9414 78L81.4224 77.8634L70.9107 40.8439L70.4297 40.9805L69.9487 41.117L80.4604 78.1366L80.9414 78ZM70.4297 40.9805V40.4805H70.1133V40.9805V41.4805H70.4297V40.9805ZM70.1133 40.9805L69.6156 41.029C69.7084 41.9803 69.8018 43.2735 69.8953 44.9113L70.3945 44.8828L70.8937 44.8543C70.7998 43.2109 70.7056 41.9025 70.6109 40.9319L70.1133 40.9805ZM70.3945 44.8828L69.8958 44.9184C70.0127 46.5549 70.1179 48.3207 70.2115 50.2161L70.7109 50.1914L71.2103 50.1667C71.1164 48.2652 71.0107 46.492 70.8933 44.8472L70.3945 44.8828ZM70.7109 50.1914L70.2115 50.2161C70.3049 52.1069 70.3516 53.9268 70.3516 55.6758H70.8516H71.3516C71.3516 53.9091 71.3045 52.0727 71.2103 50.1667L70.7109 50.1914ZM70.8516 55.6758H70.3516V78H70.8516H71.3516V55.6758H70.8516ZM70.8516 78V77.5H58.5469V78V78.5H70.8516V78ZM58.5469 78H59.0469V26.6016H58.5469H58.0469V78H58.5469ZM58.5469 26.6016V27.1016H77.0391V26.6016V26.1016H58.5469V26.6016ZM77.0391 26.6016L76.5593 26.7425L87.282 63.2347L87.7617 63.0938L88.2414 62.9528L77.5188 26.4606L77.0391 26.6016ZM87.7617 63.0938V63.5938H88.043V63.0938V62.5938H87.7617V63.0938ZM88.043 63.0938L88.5234 63.2321L99.0352 26.74L98.5547 26.6016L98.0742 26.4632L87.5625 62.9554L88.043 63.0938ZM98.5547 26.6016V27.1016H117.082V26.6016V26.1016H98.5547V26.6016ZM117.082 26.6016H116.582V78H117.082H117.582V26.6016H117.082ZM117.082 78V77.5H104.32V78V78.5H117.082V78ZM104.32 78H104.82V55.4648H104.32H103.82V78H104.32ZM104.32 55.4648H104.82C104.82 53.8524 104.844 52.1223 104.89 50.2744L104.391 50.2617L103.891 50.2491C103.844 52.1043 103.82 53.8429 103.82 55.4648H104.32ZM104.391 50.2617L104.89 50.2805C104.961 48.4062 105.031 46.6493 105.101 45.0097L104.602 44.9883L104.102 44.9669C104.032 46.6085 103.961 48.3672 103.891 50.243L104.391 50.2617ZM104.602 44.9883L105.101 45.0164C105.194 43.3534 105.276 42.0441 105.346 41.0873L104.848 41.0508L104.349 41.0143C104.278 41.9793 104.196 43.295 104.102 44.9602L104.602 44.9883ZM104.848 41.0508V40.5508H104.531V41.0508V41.5508H104.848V41.0508ZM104.531 41.0508L104.05 40.9157L93.6788 77.8649L94.1602 78L94.6416 78.1351L105.013 41.1859L104.531 41.0508ZM94.1602 78V77.5H80.9414V78V78.5H94.1602V78Z" fill="#FF8C00" mask="url(#path-2-outside-1_1156_90)"/>
<mask id="path-4-outside-2_1156_90" maskUnits="userSpaceOnUse" x="3" y="25" width="116" height="53" fill="black">
<rect fill="white" x="3" y="25" width="116" height="53"/>
<path d="M53.957 25.6016L37.1172 77H20.7695L4 25.6016H19.6094L26.6055 51.6523C26.8633 52.6367 27.1562 53.9023 27.4844 55.4492C27.8359 56.9727 28.1523 58.4961 28.4336 60.0195C28.7383 61.543 28.9258 62.7852 28.9961 63.7461C29.0898 62.7852 29.2656 61.5547 29.5234 60.0547C29.7812 58.5547 30.0625 57.0547 30.3672 55.5547C30.6953 54.0312 31 52.7773 31.2812 51.793L38.418 25.6016H53.957ZM81.9414 77L71.4297 39.9805H71.1133C71.207 40.9414 71.3008 42.2422 71.3945 43.8828C71.5117 45.5234 71.6172 47.293 71.7109 49.1914C71.8047 51.0898 71.8516 52.918 71.8516 54.6758V77H59.5469V25.6016H78.0391L88.7617 62.0938H89.043L99.5547 25.6016H118.082V77H105.32V54.4648C105.32 52.8477 105.344 51.1133 105.391 49.2617C105.461 47.3867 105.531 45.6289 105.602 43.9883C105.695 42.3242 105.777 41.0117 105.848 40.0508H105.531L95.1602 77H81.9414Z"/>
</mask>
<path d="M53.957 25.6016L54.4322 25.7572L54.647 25.1016H53.957V25.6016ZM37.1172 77V77.5H37.4795L37.5923 77.1557L37.1172 77ZM20.7695 77L20.2942 77.1551L20.4067 77.5H20.7695V77ZM4 25.6016V25.1016H3.31093L3.52466 25.7566L4 25.6016ZM19.6094 25.6016L20.0923 25.4719L19.9928 25.1016H19.6094V25.6016ZM26.6055 51.6523L27.0892 51.5257L27.0884 51.5227L26.6055 51.6523ZM27.4844 55.4492L26.9952 55.553L26.9972 55.5616L27.4844 55.4492ZM28.4336 60.0195L27.9418 60.1103L27.9433 60.1176L28.4336 60.0195ZM28.9961 63.7461L28.4974 63.7826L29.4937 63.7946L28.9961 63.7461ZM30.3672 55.5547L29.8784 55.4494L29.8772 55.4552L30.3672 55.5547ZM31.2812 51.793L31.762 51.9303L31.7637 51.9244L31.2812 51.793ZM38.418 25.6016V25.1016H38.036L37.9356 25.4701L38.418 25.6016ZM53.957 25.6016L53.4819 25.4459L36.642 76.8443L37.1172 77L37.5923 77.1557L54.4322 25.7572L53.957 25.6016ZM37.1172 77V76.5H20.7695V77V77.5H37.1172V77ZM20.7695 77L21.2449 76.8449L4.47534 25.4465L4 25.6016L3.52466 25.7566L20.2942 77.1551L20.7695 77ZM4 25.6016V26.1016H19.6094V25.6016V25.1016H4V25.6016ZM19.6094 25.6016L19.1265 25.7312L26.1226 51.782L26.6055 51.6523L27.0884 51.5227L20.0923 25.4719L19.6094 25.6016ZM26.6055 51.6523L26.1218 51.779C26.3768 52.7529 26.668 54.0101 26.9953 55.553L27.4844 55.4492L27.9735 55.3455C27.6445 53.7946 27.3497 52.5206 27.0892 51.5257L26.6055 51.6523ZM27.4844 55.4492L26.9972 55.5616C27.3471 57.078 27.662 58.5942 27.9419 60.1103L28.4336 60.0195L28.9253 59.9288C28.6427 58.398 28.3248 56.8673 27.9716 55.3368L27.4844 55.4492ZM28.4336 60.0195L27.9433 60.1176C28.2461 61.6314 28.4293 62.8509 28.4974 63.7826L28.9961 63.7461L29.4948 63.7096C29.4223 62.7194 29.2305 61.4546 28.9239 59.9215L28.4336 60.0195ZM28.9961 63.7461L29.4937 63.7946C29.5858 62.8506 29.7594 61.6334 30.0162 60.1394L29.5234 60.0547L29.0307 59.97C28.7718 61.476 28.5939 62.7197 28.4985 63.6975L28.9961 63.7461ZM29.5234 60.0547L30.0162 60.1394C30.2732 58.6444 30.5535 57.1493 30.8572 55.6542L30.3672 55.5547L29.8772 55.4552C29.5715 56.9601 29.2893 58.465 29.0307 59.97L29.5234 60.0547ZM30.3672 55.5547L30.856 55.66C31.1828 54.1424 31.4849 52.9002 31.762 51.9303L31.2812 51.793L30.8005 51.6556C30.5151 52.6545 30.2078 53.9201 29.8784 55.4494L30.3672 55.5547ZM31.2812 51.793L31.7637 51.9244L38.9004 25.733L38.418 25.6016L37.9356 25.4701L30.7988 51.6615L31.2812 51.793ZM38.418 25.6016V26.1016H53.957V25.6016V25.1016H38.418V25.6016ZM81.9414 77L81.4604 77.1366L81.5636 77.5H81.9414V77ZM71.4297 39.9805L71.9107 39.8439L71.8075 39.4805H71.4297V39.9805ZM71.1133 39.9805V39.4805H70.5621L70.6156 40.029L71.1133 39.9805ZM71.3945 43.8828L70.8953 43.9113L70.8958 43.9184L71.3945 43.8828ZM71.8516 77V77.5H72.3516V77H71.8516ZM59.5469 77H59.0469V77.5H59.5469V77ZM59.5469 25.6016V25.1016H59.0469V25.6016H59.5469ZM78.0391 25.6016L78.5188 25.4606L78.4133 25.1016H78.0391V25.6016ZM88.7617 62.0938L88.282 62.2347L88.3875 62.5938H88.7617V62.0938ZM89.043 62.0938V62.5938H89.4193L89.5234 62.2321L89.043 62.0938ZM99.5547 25.6016V25.1016H99.1784L99.0742 25.4632L99.5547 25.6016ZM118.082 25.6016H118.582V25.1016H118.082V25.6016ZM118.082 77V77.5H118.582V77H118.082ZM105.32 77H104.82V77.5H105.32V77ZM105.391 49.2617L104.891 49.243L104.891 49.2491L105.391 49.2617ZM105.602 43.9883L105.102 43.9602L105.102 43.9669L105.602 43.9883ZM105.848 40.0508L106.346 40.0873L106.386 39.5508H105.848V40.0508ZM105.531 40.0508V39.5508H105.152L105.05 39.9157L105.531 40.0508ZM95.1602 77V77.5H95.5391L95.6416 77.1351L95.1602 77ZM81.9414 77L82.4224 76.8634L71.9107 39.8439L71.4297 39.9805L70.9487 40.117L81.4604 77.1366L81.9414 77ZM71.4297 39.9805V39.4805H71.1133V39.9805V40.4805H71.4297V39.9805ZM71.1133 39.9805L70.6156 40.029C70.7084 40.9803 70.8018 42.2735 70.8953 43.9113L71.3945 43.8828L71.8937 43.8543C71.7998 42.2109 71.7056 40.9025 71.6109 39.9319L71.1133 39.9805ZM71.3945 43.8828L70.8958 43.9184C71.0127 45.5549 71.1179 47.3207 71.2115 49.2161L71.7109 49.1914L72.2103 49.1667C72.1164 47.2652 72.0107 45.492 71.8933 43.8472L71.3945 43.8828ZM71.7109 49.1914L71.2115 49.2161C71.3049 51.1069 71.3516 52.9268 71.3516 54.6758H71.8516H72.3516C72.3516 52.9091 72.3045 51.0727 72.2103 49.1667L71.7109 49.1914ZM71.8516 54.6758H71.3516V77H71.8516H72.3516V54.6758H71.8516ZM71.8516 77V76.5H59.5469V77V77.5H71.8516V77ZM59.5469 77H60.0469V25.6016H59.5469H59.0469V77H59.5469ZM59.5469 25.6016V26.1016H78.0391V25.6016V25.1016H59.5469V25.6016ZM78.0391 25.6016L77.5593 25.7425L88.282 62.2347L88.7617 62.0938L89.2414 61.9528L78.5188 25.4606L78.0391 25.6016ZM88.7617 62.0938V62.5938H89.043V62.0938V61.5938H88.7617V62.0938ZM89.043 62.0938L89.5234 62.2321L100.035 25.74L99.5547 25.6016L99.0742 25.4632L88.5625 61.9554L89.043 62.0938ZM99.5547 25.6016V26.1016H118.082V25.6016V25.1016H99.5547V25.6016ZM118.082 25.6016H117.582V77H118.082H118.582V25.6016H118.082ZM118.082 77V76.5H105.32V77V77.5H118.082V77ZM105.32 77H105.82V54.4648H105.32H104.82V77H105.32ZM105.32 54.4648H105.82C105.82 52.8524 105.844 51.1223 105.89 49.2744L105.391 49.2617L104.891 49.2491C104.844 51.1043 104.82 52.8429 104.82 54.4648H105.32ZM105.391 49.2617L105.89 49.2805C105.961 47.4062 106.031 45.6493 106.101 44.0097L105.602 43.9883L105.102 43.9669C105.032 45.6085 104.961 47.3672 104.891 49.243L105.391 49.2617ZM105.602 43.9883L106.101 44.0164C106.194 42.3534 106.276 41.0441 106.346 40.0873L105.848 40.0508L105.349 40.0143C105.278 40.9793 105.196 42.295 105.102 43.9602L105.602 43.9883ZM105.848 40.0508V39.5508H105.531V40.0508V40.5508H105.848V40.0508ZM105.531 40.0508L105.05 39.9157L94.6788 76.8649L95.1602 77L95.6416 77.1351L106.013 40.1859L105.531 40.0508ZM95.1602 77V76.5H81.9414V77V77.5H95.1602V77Z" fill="#FF0080" mask="url(#path-4-outside-2_1156_90)"/>
</svg>
